# xmcd CD database file
#
# Track frame offsets:
#	150
#	662
#	19696
#	26246
#	40415
#	53120
#	71701
#	90000
#	105343
#	124824
#	138435
#	157932
#	175755
#	191214
#	209413
#	223614
#	244243
#
# Disc length: 3505 seconds
#
# Revision: 0
# Processed by: cddbd v1.5.2PL0 Copyright (c) Steve Scherf et al.
# Submitted via: CDex 1.70beta2
#
DISCID=e60daf11
DTITLE=鍾鎮濤 - 還有你 新曲+精選 Disc 2
DYEAR=2003
DGENRE=Blues
TTITLE0=電腦檔案
TTITLE1=今天我非常寂寞（演唱會卡拉 OK 版）
TTITLE2=小城故事（演唱會卡拉 OK 版）
TTITLE3=寧願做青蛙
TTITLE4=飛機頭
TTITLE5=一段情
TTITLE6=要是有緣
TTITLE7=變幻是緣份
TTITLE8=888 支箭
TTITLE9=淚之旅
TTITLE10=原來真愛你
TTITLE11=天涯人
TTITLE12=香腸、蚊帳、機關槍
TTITLE13=為你醉心
TTITLE14=無限旅程
TTITLE15=魅幻
TTITLE16=仍然心在想你
EXTD=YEAR: 2003
EXTT0=
EXTT1=
EXTT2=
EXTT3=
EXTT4=
EXTT5=
EXTT6=
EXTT7=
EXTT8=
EXTT9=
EXTT10=
EXTT11=
EXTT12=
EXTT13=
EXTT14=
EXTT15=
EXTT16=
PLAYORDER=
